<?xml version="1.0" standalone="no"?>
<!DOCTYPE svg PUBLIC "-//W3C//DTD SVG 20010904//EN"
 "http://www.w3.org/TR/2001/REC-SVG-20010904/DTD/svg10.dtd">
<svg version="1.0" xmlns="http://www.w3.org/2000/svg"
 width="120.000000pt" height="120.000000pt" viewBox="0 0 120.000000 120.000000"
 preserveAspectRatio="xMidYMid meet">
<metadata>
Created by potrace 1.11, written by Peter Selinger 2001-2013
</metadata>
<g transform="translate(0.000000,120.000000) scale(0.100000,-0.100000)"
fill="#000000" stroke="none">
<path d="M538 1165 c-3 -3 -4 -19 -2 -35 4 -36 -9 -46 -38 -26 -28 20 -38 20
-38 0 0 -8 14 -20 30 -26 35 -12 35 -30 0 -38 -13 -3 -25 -11 -28 -18 -3 -10
5 -12 33 -6 33 6 37 5 32 -12 -27 -90 -15 -112 58 -109 22 1 43 0 48 -2 4 -3
-8 -23 -27 -46 -55 -67 -87 -140 -91 -206 -3 -60 13 -141 27 -141 4 0 8 -5 8
-10 0 -6 -18 3 -40 19 -43 31 -45 32 -103 12 -46 -16 -53 -11 -39 28 9 26 8
31 -4 31 -8 0 -17 -13 -21 -31 -6 -32 -21 -28 -28 9 -5 27 -14 42 -25 42 -9 0
-6 -29 6 -69 6 -22 5 -23 -22 -18 -16 3 -40 8 -53 13 -42 13 -19 -20 24 -34
46 -15 57 -29 44 -54 -5 -10 -6 -18 -2 -18 4 0 2 -5 -5 -12 -14 -14 -16 -58
-3 -58 9 0 29 21 30 33 1 4 1 18 1 31 0 20 6 24 43 30 23 3 56 8 72 12 25 5
33 1 47 -23 9 -15 35 -48 57 -73 47 -51 49 -67 18 -130 -57 -116 -209 -164
-392 -124 -38 8 -82 17 -97 21 -88 18 38 -61 134 -85 42 -11 141 -26 163 -25
163 9 280 93 322 233 10 35 64 151 79 168 1 2 16 -4 33 -14 31 -18 42 -56 21
-69 -14 -9 -5 -50 11 -50 8 0 14 10 14 25 1 32 15 73 27 81 6 4 26 3 46 -2 41
-9 74 2 51 17 -8 5 -21 9 -29 10 -44 3 -50 5 -50 18 0 7 11 22 25 32 14 10 25
24 25 31 0 22 -28 14 -49 -15 l-22 -27 3 35 c2 26 -1 35 -12 35 -9 0 -15 -9
-15 -22 -1 -37 -12 -37 -52 1 -21 20 -43 36 -48 36 -12 0 -45 -36 -45 -50 0
-5 -4 -11 -9 -14 -10 -7 -6 16 15 84 7 25 16 61 19 80 3 19 8 43 11 52 3 9 6
25 8 35 6 29 34 93 41 93 3 0 4 -3 2 -7 -3 -5 -7 -32 -11 -60 -6 -51 -5 -54
29 -86 29 -27 34 -39 31 -66 -3 -25 0 -31 13 -29 11 2 15 12 13 31 -4 35 19
45 53 23 26 -17 51 -13 39 5 -3 6 -17 14 -30 19 -28 11 -23 33 12 48 24 12 33
32 14 32 -6 0 -22 -7 -35 -16 -28 -18 -35 -3 -10 23 8 8 13 19 10 24 -10 16
-21 10 -33 -17 -13 -28 -32 -24 -32 7 0 10 -4 19 -9 19 -5 0 -5 16 -1 37 5 20
8 39 8 42 -3 36 3 42 37 37 27 -5 60 4 140 37 118 48 165 84 165 126 0 24 -6
29 -57 45 -32 10 -65 29 -76 42 -20 26 -17 26 -126 -1 -66 -16 -91 -36 -141
-108 -33 -48 -54 -57 -169 -69 -20 -2 -27 5 -29 25 -3 39 19 77 55 92 19 8 32
19 28 25 -4 6 -17 5 -36 -5 -25 -14 -29 -14 -29 -1 0 8 5 18 10 21 14 9 12 47
-2 43 -7 -3 -15 -15 -18 -28 -8 -32 -32 -39 -30 -9 4 45 -4 61 -22 44z"/>
</g>
</svg>
